# xmcd
#
# Track frame offsets:
#	150
#	20291
#	37750
#	57051
#	73250
#	86673
#	103237
#	120002
#	148043
#
# Disc length: 2176 seconds
#
# Revision: 0
# Processed by: cddbd v1.5.2PL0 Copyright (c) Steve Scherf et al.
# Submitted via: audiograbber 1.83.01
#
DISCID=6e087e09
DTITLE=Pointer Sisters - Priority
DYEAR=1979
DGENRE=Rock
TTITLE0=Who Do You Love
TTITLE1=All Your Love
TTITLE2=Dreaming As One 
TTITLE3=Turned Up Too Late
TTITLE4=Happy
TTITLE5=Blind Faith
TTITLE6=Don't Let A Thief Steal Into Your Heart
TTITLE7=Shes Got The Fever
TTITLE8=The Shape I'm In 
EXTD=
EXTT0=
EXTT1=
EXTT2=
EXTT3=
EXTT4=
EXTT5=
EXTT6=
EXTT7=
EXTT8=
PLAYORDER=
